<svg width="24" height="48" viewBox="0 0 24 48" fill="none" xmlns="http://www.w3.org/2000/svg">
<path d="M8 34C8.55228 34 9 33.5523 9 33C9 32.4477 8.55228 32 8 32C7.44772 32 7 32.4477 7 33C7 33.5523 7.44772 34 8 34Z" stroke="white" stroke-width="2" stroke-linecap="round" stroke-linejoin="round"/>
<path d="M19 34C19.5523 34 20 33.5523 20 33C20 32.4477 19.5523 32 19 32C18.4477 32 18 32.4477 18 33C18 33.5523 18.4477 34 19 34Z" stroke="white" stroke-width="2" stroke-linecap="round" stroke-linejoin="round"/>
<path d="M2.0498 14.05H4.0498L6.7098 26.47C6.80738 26.9249 7.06048 27.3315 7.42552 27.6199C7.79056 27.9083 8.24471 28.0604 8.7098 28.05H18.4898C18.945 28.0493 19.3863 27.8933 19.7408 27.6079C20.0954 27.3224 20.3419 26.9246 20.4398 26.48L22.0898 19.05H5.1198" stroke="white" stroke-width="2" stroke-linecap="round" stroke-linejoin="round"/>
</svg>
