<svg width="20" height="20" viewBox="0 0 20 20" fill="none" xmlns="http://www.w3.org/2000/svg">
<path fill-rule="evenodd" clip-rule="evenodd" d="M19.6976 18.4694L15.0036 13.7762C17.8299 10.383 17.4874 5.36693 14.2261 2.38935C10.9648 -0.588237 5.93833 -0.474001 2.81566 2.64867C-0.307009 5.77134 -0.421245 10.7978 2.55634 14.0591C5.53393 17.3204 10.55 17.6629 13.9432 14.8366L18.6364 19.5306C18.9294 19.8237 19.4046 19.8237 19.6976 19.5306C19.9907 19.2376 19.9907 18.7624 19.6976 18.4694V18.4694ZM1.91699 8.5C1.91699 4.77208 4.93907 1.75 8.66699 1.75C12.3949 1.75 15.417 4.77208 15.417 8.5C15.417 12.2279 12.3949 15.25 8.66699 15.25C4.94078 15.2459 1.92113 12.2262 1.91699 8.5V8.5Z" fill="#004C6C"/>
</svg>
